<svg id="图层_1" data-name="图层 1" xmlns="http://www.w3.org/2000/svg" width="512" height="512" viewBox="0 0 512 512"><defs><style>.cls-1{fill:#96affa;}.cls-2{fill:#557cf2;}.cls-3{fill:#246cf2;}</style></defs><title>滔滔清风科技馆图标</title><path class="cls-1" d="M162.654,408,120.4,384.68V109.673c-14.686-8.481-41.8-24.21-56.234-32.546,0-16.78,0-33.088,0-49.4,43.981,25.478,112.381,65.2,156.362,90.679q-.029,24.367-.058,48.733c-14.907-8.427-42.14-24.03-57.819-32.963C162.654,226.234,162.654,317.117,162.654,408Z"/><path class="cls-2" d="M211,161.759c0,73.736,0,144.327,0,218.2C190.25,391.725,181.329,397.442,162.654,408c0-90.883,0-181.766,0-273.819"/><path class="cls-2" d="M268.091,91.369c-19.245,11.049-28.315,15.993-47.56,27.041C176.55,92.932,108.15,53.209,64.169,27.731,83.238,16.488,92.132,11.348,111.379,0"/><path class="cls-3" d="M220.473,167.144l.058-48.733c19.245-11.048,28.315-15.992,47.56-27.041q0,24.151-.013,48.282"/><path class="cls-1" d="M342.394,512l-42.251-23.32V213.673c-14.686-8.481-41.8-24.21-56.234-32.546,0-16.78,0-33.088,0-49.4,43.981,25.478,112.381,65.2,156.362,90.679q-.029,24.367-.058,48.733c-14.907-8.427-42.14-24.03-57.819-32.963C342.394,330.234,342.394,421.117,342.394,512Z"/><path class="cls-2" d="M390.742,265.759c0,73.736,0,144.327,0,218.2C369.99,495.725,361.069,501.442,342.394,512c0-90.883,0-181.766,0-273.819"/><path class="cls-2" d="M447.831,195.369c-19.245,11.049-28.315,15.993-47.56,27.041-43.981-25.478-112.381-65.2-156.362-90.679,19.069-11.244,27.964-16.383,47.21-27.731"/><path class="cls-3" d="M400.213,271.144l.058-48.733c19.245-11.048,28.315-15.992,47.56-27.041q0,24.151-.013,48.282"/></svg>